0
SECTION
2
HEADER
9
$INSUNITS
70
4
9
$ACADVER
1
AC1014
9
$HANDSEED
5
FFFF
0
ENDSEC
0
SECTION
2
TABLES
0
TABLE
2
VPORT
5
8
100
AcDbSymbolTable
0
ENDTAB
0
TABLE
2
LTYPE
5
5
100
AcDbSymbolTable
0
LTYPE
5
14
100
AcDbSymbolTableRecord
100
AcDbLinetypeTableRecord
2
BYBLOCK
70
0
0
LTYPE
5
15
100
AcDbSymbolTableRecord
100
AcDbLinetypeTableRecord
2
BYLAYER
70
0
0
ENDTAB
0
TABLE
2
LAYER
5
2
100
AcDbSymbolTable
70
2
0
LAYER
5
50
100
AcDbSymbolTableRecord
100
AcDbLayerTableRecord
2
0
70
0
6
CONTINUOUS
0
ENDTAB
0
TABLE
2
STYLE
5
3
100
AcDbSymbolTable
70
1
0
STYLE
5
11
100
AcDbSymbolTableRecord
100
AcDbTextStyleTableRecord
2
STANDARD
70
0
0
ENDTAB
0
TABLE
2
VIEW
5
6
100
AcDbSymbolTable
70
0
0
ENDTAB
0
TABLE
2
UCS
5
7
100
AcDbSymbolTable
70
0
0
ENDTAB
0
TABLE
2
APPID
5
9
100
AcDbSymbolTable
70
2
0
APPID
5
12
100
AcDbSymbolTableRecord
100
AcDbRegAppTableRecord
2
ACAD
70
0
0
ENDTAB
0
TABLE
2
DIMSTYLE
5
A
100
AcDbSymbolTable
70
1
0
ENDTAB
0
TABLE
2
BLOCK_RECORD
5
1
100
AcDbSymbolTable
70
1
0
BLOCK_RECORD
5
1F
100
AcDbSymbolTableRecord
100
AcDbBlockTableRecord
2
*MODEL_SPACE
0
BLOCK_RECORD
5
1B
100
AcDbSymbolTableRecord
100
AcDbBlockTableRecord
2
*PAPER_SPACE
0
ENDTAB
0
ENDSEC
0
SECTION
2
BLOCKS
0
BLOCK
5
20
100
AcDbEntity
100
AcDbBlockBegin
2
*MODEL_SPACE
0
ENDBLK
5
21
100
AcDbEntity
100
AcDbBlockEnd
0
BLOCK
5
1C
100
AcDbEntity
100
AcDbBlockBegin
2
*PAPER_SPACE
0
ENDBLK
5
1D
100
AcDbEntity
100
AcDbBlockEnd
0
ENDSEC
0
SECTION
2
ENTITIES
0
CIRCLE
5
100
100
AcDbEntity
8
0
100
AcDbCircle
10
-80.5
20
120.65000000000001
30
0
40
3.2000000000000002
210
0
220
0
230
1
0
CIRCLE
5
101
100
AcDbEntity
8
0
100
AcDbCircle
10
80.5
20
120.65000000000001
30
0
40
3.199999999999994
210
0
220
0
230
1
0
CIRCLE
5
102
100
AcDbEntity
8
0
100
AcDbCircle
10
-80.5
20
-120.65000000000001
30
0
40
3.2000000000000073
210
0
220
0
230
1
0
CIRCLE
5
103
100
AcDbEntity
8
0
100
AcDbCircle
10
80.5
20
-120.65000000000001
30
0
40
3.1999999999999948
210
0
220
0
230
1
0
LINE
5
104
100
AcDbEntity
8
0
100
AcDbLine
10
66.500000000000014
20
108.50000000000001
30
0
11
-66.500000000000014
21
108.50000000000001
31
0
0
LINE
5
105
100
AcDbEntity
8
0
100
AcDbLine
10
-66.500000000000014
20
108.50000000000001
30
0
11
-66.500000000000014
21
-108.50000000000001
31
0
0
LINE
5
106
100
AcDbEntity
8
0
100
AcDbLine
10
-66.500000000000014
20
-108.50000000000001
30
0
11
66.500000000000014
21
-108.50000000000001
31
0
0
LINE
5
107
100
AcDbEntity
8
0
100
AcDbLine
10
66.500000000000014
20
-108.50000000000001
30
0
11
66.500000000000014
21
108.50000000000001
31
0
0
LINE
5
108
100
AcDbEntity
8
0
100
AcDbLine
10
66.500000000000014
20
108.50000000000001
30
0
11
-66.500000000000014
21
-108.50000000000001
31
0
0
LINE
5
109
100
AcDbEntity
8
0
100
AcDbLine
10
-66.500000000000014
20
108.50000000000001
30
0
11
66.500000000000014
21
-108.50000000000001
31
0
0
LWPOLYLINE
5
110
100
AcDbEntity
8
0
100
AcDbPolyline
90
4
70
1
43
0.0
10
344.89999999999998
20
137
10
344.89999999999998
20
-137
10
157.89999999999998
20
-137
10
157.89999999999998
20
137
0
LWPOLYLINE
5
111
100
AcDbEntity
8
0
100
AcDbPolyline
90
4
70
1
43
0.0
10
334.09999999999997
20
-27.900000000000006
10
308.69999999999999
20
-27.900000000000006
10
308.69999999999999
20
-40.600000000000009
10
334.09999999999997
20
-40.600000000000009
0
LWPOLYLINE
5
112
100
AcDbEntity
8
0
100
AcDbPolyline
90
4
70
1
43
0.0
10
334.09999999999997
20
27.900000000000006
10
308.69999999999999
20
27.900000000000006
10
308.69999999999999
20
40.600000000000009
10
334.09999999999997
20
40.600000000000009
0
LWPOLYLINE
5
113
100
AcDbEntity
8
0
100
AcDbPolyline
90
4
70
1
43
0.0
10
334.09999999999997
20
-6.3499999999999996
10
308.69999999999999
20
-6.3499999999999996
10
308.69999999999999
20
6.3499999999999996
10
334.09999999999997
20
6.3499999999999996
0
LWPOLYLINE
5
114
100
AcDbEntity
8
0
100
AcDbPolyline
90
4
70
1
43
0.0
10
334.09999999999997
20
62.150000000000006
10
308.69999999999999
20
62.150000000000006
10
308.69999999999999
20
74.850000000000009
10
334.09999999999997
20
74.850000000000009
0
LWPOLYLINE
5
115
100
AcDbEntity
8
0
100
AcDbPolyline
90
4
70
1
43
0.0
10
334.09999999999997
20
-74.850000000000009
10
334.09999999999997
20
-62.150000000000006
10
308.69999999999999
20
-62.150000000000006
10
308.69999999999999
20
-74.850000000000009
0
LWPOLYLINE
5
116
100
AcDbEntity
8
0
100
AcDbPolyline
90
4
70
1
43
0.0
10
334.09999999999997
20
96.400000000000006
10
334.09999999999997
20
109.09999999999999
10
308.69999999999999
20
109.09999999999999
10
308.69999999999999
20
96.400000000000006
0
LWPOLYLINE
5
117
100
AcDbEntity
8
0
100
AcDbPolyline
90
4
70
1
43
0.0
10
334.09999999999997
20
-109.09999999999999
10
308.69999999999999
20
-109.09999999999999
10
308.69999999999999
20
-96.400000000000006
10
334.09999999999997
20
-96.400000000000006
0
LWPOLYLINE
5
118
100
AcDbEntity
8
0
100
AcDbPolyline
90
4
70
1
43
0.0
10
-152.40000000000003
20
152.40000000000003
10
152.40000000000003
20
152.40000000000003
10
152.40000000000003
20
-152.40000000000003
10
-152.40000000000003
20
-152.40000000000003
0
LINE
5
119
100
AcDbEntity
8
0
100
AcDbLine
10
344.89999999999998
20
137
30
0
11
344.89999999999998
21
-137
31
0
0
LINE
5
120
100
AcDbEntity
8
0
100
AcDbLine
10
0
20
0
30
0
11
-3.49713720882432
21
5.7058554459765221
31
0
0
LWPOLYLINE
5
121
100
AcDbEntity
8
0
100
AcDbPolyline
90
4
70
1
43
0.0
10
-308.69999999999999
20
-40.600000000000009
10
-334.09999999999997
20
-40.600000000000009
10
-334.09999999999997
20
-27.900000000000009
10
-308.69999999999999
20
-27.900000000000009
0
LWPOLYLINE
5
122
100
AcDbEntity
8
0
100
AcDbPolyline
90
4
70
1
43
0.0
10
-334.09999999999997
20
-96.399999999999991
10
-334.09999999999997
20
-109.10000000000002
10
-308.69999999999999
20
-109.10000000000002
10
-308.69999999999999
20
-96.399999999999991
0
LWPOLYLINE
5
123
100
AcDbEntity
8
0
100
AcDbPolyline
90
4
70
1
43
0.0
10
-334.09999999999997
20
96.400000000000006
10
-334.09999999999997
20
109.09999999999999
10
-308.69999999999999
20
109.09999999999999
10
-308.69999999999999
20
96.400000000000006
0
LWPOLYLINE
5
124
100
AcDbEntity
8
0
100
AcDbPolyline
90
4
70
1
43
0.0
10
-334.09999999999997
20
40.600000000000009
10
-334.09999999999997
20
27.900000000000009
10
-308.69999999999999
20
27.900000000000009
10
-308.69999999999999
20
40.600000000000009
0
LWPOLYLINE
5
125
100
AcDbEntity
8
0
100
AcDbPolyline
90
4
70
1
43
0.0
10
-308.69999999999999
20
-6.3499999999999979
10
-308.69999999999999
20
6.3499999999999979
10
-334.09999999999997
20
6.3499999999999979
10
-334.09999999999997
20
-6.3499999999999979
0
LWPOLYLINE
5
126
100
AcDbEntity
8
0
100
AcDbPolyline
90
4
70
1
43
0.0
10
-334.09999999999997
20
-62.15000000000002
10
-308.69999999999999
20
-62.15000000000002
10
-308.69999999999999
20
-74.850000000000009
10
-334.09999999999997
20
-74.850000000000009
0
LWPOLYLINE
5
127
100
AcDbEntity
8
0
100
AcDbPolyline
90
4
70
1
43
0.0
10
-308.69999999999999
20
74.850000000000009
10
-334.09999999999997
20
74.850000000000009
10
-334.09999999999997
20
62.150000000000006
10
-308.69999999999999
20
62.150000000000006
0
LWPOLYLINE
5
128
100
AcDbEntity
8
0
100
AcDbPolyline
90
4
70
1
43
0.0
10
-344.89999999999998
20
137
10
-344.89999999999998
20
-137
10
-157.89999999999998
20
-137
10
-157.89999999999998
20
137
0
LINE
5
129
100
AcDbEntity
8
0
100
AcDbLine
10
-344.89999999999998
20
137
30
0
11
-344.89999999999998
21
-137
31
0
0
LINE
5
130
100
AcDbEntity
8
0
100
AcDbLine
10
-97.900000000000034
20
5
30
0
11
-97.900000000000034
21
-5
31
0
0
LINE
5
131
100
AcDbEntity
8
0
100
AcDbLine
10
5
20
137
30
0
11
-5
21
137
31
0
0
LINE
5
132
100
AcDbEntity
8
0
100
AcDbLine
10
97.900000000000034
20
5
30
0
11
97.900000000000034
21
-5
31
0
0
LINE
5
133
100
AcDbEntity
8
0
100
AcDbLine
10
5
20
-137
30
0
11
-5
21
-137
31
0
0
LWPOLYLINE
5
134
100
AcDbEntity
8
0
100
AcDbPolyline
90
4
70
1
43
0.0
10
-40.099999999999909
20
-163.05132101325142
10
-344.89999999999998
20
-163.05132101325142
10
-344.89999999999998
20
-350.05132101325148
10
-40.099999999999909
20
-350.05132101325148
0
LWPOLYLINE
5
135
100
AcDbEntity
8
0
100
AcDbPolyline
90
4
70
1
43
0.0
10
-292.49999999999994
20
-335.55132101325142
10
-292.49999999999994
20
-177.55132101325142
10
-202.49999999999994
20
-177.55132101325145
10
-202.49999999999994
20
-335.55132101325142
0
LWPOLYLINE
5
136
100
AcDbEntity
8
0
100
AcDbPolyline
90
4
70
1
43
0.0
10
-92.499999999999929
20
-177.55132101325142
10
-92.499999999999929
20
-335.55132101325142
10
-182.49999999999994
20
-335.55132101325142
10
-182.49999999999994
20
-177.55132101325145
0
LWPOLYLINE
5
137
100
AcDbEntity
8
0
100
AcDbPolyline
90
4
70
1
43
0.0
10
182.49999999999994
20
-177.55132101325145
10
182.49999999999994
20
-335.55132101325142
10
92.499999999999929
20
-335.55132101325142
10
92.499999999999929
20
-177.55132101325142
0
LWPOLYLINE
5
138
100
AcDbEntity
8
0
100
AcDbPolyline
90
4
70
1
43
0.0
10
40.099999999999909
20
-163.05132101325142
10
344.89999999999998
20
-163.05132101325142
10
344.89999999999998
20
-350.05132101325148
10
40.099999999999909
20
-350.05132101325148
0
LWPOLYLINE
5
139
100
AcDbEntity
8
0
100
AcDbPolyline
90
4
70
1
43
0.0
10
292.49999999999994
20
-335.55132101325142
10
292.49999999999994
20
-177.55132101325142
10
202.49999999999994
20
-177.55132101325145
10
202.49999999999994
20
-335.55132101325142
0
CIRCLE
5
140
100
AcDbEntity
8
0
100
AcDbCircle
10
-318.69999999999993
20
-209.80132101325142
30
0
40
10
210
0
220
0
230
1
0
CIRCLE
5
141
100
AcDbEntity
8
0
100
AcDbCircle
10
-204.65000000000001
20
-132
30
0
40
2.5000000000000133
210
0
220
0
230
1
0
ENDSEC
0
SECTION
2
OBJECTS
0
DICTIONARY
5
C
100
AcDbDictionary
3
ACAD_GROUP
350
D
3
ACAD_MLINESTYLE
350
17
0
DICTIONARY
5
D
100
AcDbDictionary
0
DICTIONARY
5
1A
330
C
100
AcDbDictionary
0
DICTIONARY
5
17
100
AcDbDictionary
0
ENDSEC
0
EOF
