0
SECTION
2
HEADER
9
$INSUNITS
70
4
9
$ACADVER
1
AC1014
9
$HANDSEED
5
FFFF
0
ENDSEC
0
SECTION
2
TABLES
0
TABLE
2
VPORT
5
8
100
AcDbSymbolTable
0
ENDTAB
0
TABLE
2
LTYPE
5
5
100
AcDbSymbolTable
0
LTYPE
5
14
100
AcDbSymbolTableRecord
100
AcDbLinetypeTableRecord
2
BYBLOCK
70
0
0
LTYPE
5
15
100
AcDbSymbolTableRecord
100
AcDbLinetypeTableRecord
2
BYLAYER
70
0
0
ENDTAB
0
TABLE
2
LAYER
5
2
100
AcDbSymbolTable
70
2
0
LAYER
5
50
100
AcDbSymbolTableRecord
100
AcDbLayerTableRecord
2
0
70
0
6
CONTINUOUS
0
ENDTAB
0
TABLE
2
STYLE
5
3
100
AcDbSymbolTable
70
1
0
STYLE
5
11
100
AcDbSymbolTableRecord
100
AcDbTextStyleTableRecord
2
STANDARD
70
0
0
ENDTAB
0
TABLE
2
VIEW
5
6
100
AcDbSymbolTable
70
0
0
ENDTAB
0
TABLE
2
UCS
5
7
100
AcDbSymbolTable
70
0
0
ENDTAB
0
TABLE
2
APPID
5
9
100
AcDbSymbolTable
70
2
0
APPID
5
12
100
AcDbSymbolTableRecord
100
AcDbRegAppTableRecord
2
ACAD
70
0
0
ENDTAB
0
TABLE
2
DIMSTYLE
5
A
100
AcDbSymbolTable
70
1
0
ENDTAB
0
TABLE
2
BLOCK_RECORD
5
1
100
AcDbSymbolTable
70
1
0
BLOCK_RECORD
5
1F
100
AcDbSymbolTableRecord
100
AcDbBlockTableRecord
2
*MODEL_SPACE
0
BLOCK_RECORD
5
1B
100
AcDbSymbolTableRecord
100
AcDbBlockTableRecord
2
*PAPER_SPACE
0
ENDTAB
0
ENDSEC
0
SECTION
2
BLOCKS
0
BLOCK
5
20
100
AcDbEntity
100
AcDbBlockBegin
2
*MODEL_SPACE
0
ENDBLK
5
21
100
AcDbEntity
100
AcDbBlockEnd
0
BLOCK
5
1C
100
AcDbEntity
100
AcDbBlockBegin
2
*PAPER_SPACE
0
ENDBLK
5
1D
100
AcDbEntity
100
AcDbBlockEnd
0
ENDSEC
0
SECTION
2
ENTITIES
0
LWPOLYLINE
5
100
100
AcDbEntity
8
0
100
AcDbPolyline
90
12
70
1
43
0.0
10
-80
20
80
10
80
20
80
10
80
20
20
10
83.175000000000011
20
20
10
83.175000000000011
20
83.175000000000011
10
-83.175000000000011
20
83.175000000000011
10
-83.175000000000011
20
-83.175000000000011
10
83.175000000000011
20
-83.175000000000011
10
83.175000000000011
20
-20
10
80
20
-20
10
80
20
-80
10
-80
20
-80
0
LWPOLYLINE
5
101
100
AcDbEntity
8
0
100
AcDbPolyline
90
4
70
1
43
0.0
10
-75
20
75
10
75
20
75
10
75
20
-75
10
-75
20
-75
0
LWPOLYLINE
5
102
100
AcDbEntity
8
0
100
AcDbPolyline
90
4
70
1
43
0.0
10
255
20
-75
10
255
20
75
10
105
20
75
10
105
20
-75
0
CIRCLE
5
103
100
AcDbEntity
8
0
100
AcDbCircle
10
180
20
0
30
0
40
8.7499999999999929
210
0
220
0
230
1
0
LWPOLYLINE
5
104
100
AcDbEntity
8
0
100
AcDbPolyline
90
12
70
1
43
0.0
10
452.48051146084879
20
-164.19928184019108
10
382.48051146084936
20
-164.19928184019113
10
382.48051146084936
20
-170.5492818401911
10
362.48051146084947
20
-170.5492818401911
10
362.48051146084947
20
-164.19928184019116
10
292.4805114608501
20
-164.19928184019119
10
292.48051146084981
20
85.800718159806735
10
352.48051146084919
20
85.800718159806792
10
352.48051146084919
20
82.620718159806813
10
392.48051146084919
20
82.620718159806813
10
392.48051146084919
20
85.80071815980682
10
452.48051146084845
20
85.800718159806877
0
CIRCLE
5
105
100
AcDbEntity
8
0
100
AcDbCircle
10
322.48051146084981
20
-144.19928184019136
30
0
40
3.9999999999999987
210
0
220
0
230
1
0
LWPOLYLINE
5
106
100
AcDbEntity
8
0
100
AcDbPolyline
90
4
70
1
43
0.0
10
-85
20
-192.43946951378354
10
-85
20
-92.439469513783536
10
265
20
-92.439469513783536
10
265
20
-192.43946951378354
0
CIRCLE
5
107
100
AcDbEntity
8
0
100
AcDbCircle
10
-15
20
-142.43946951378354
30
0
40
6.0000000000000009
210
0
220
0
230
1
0
CIRCLE
5
108
100
AcDbEntity
8
0
100
AcDbCircle
10
55
20
-142.43946951378354
30
0
40
5.9999999999999964
210
0
220
0
230
1
0
CIRCLE
5
109
100
AcDbEntity
8
0
100
AcDbCircle
10
125
20
-142.43946951378354
30
0
40
5.9999999999999947
210
0
220
0
230
1
0
CIRCLE
5
110
100
AcDbEntity
8
0
100
AcDbCircle
10
195
20
-142.43946951378354
30
0
40
6.0000000000000036
210
0
220
0
230
1
0
LWPOLYLINE
5
111
100
AcDbEntity
8
0
100
AcDbPolyline
90
4
70
1
43
0.0
10
-87.500000000000014
20
87.5
10
87.500000000000014
20
87.5
10
87.500000000000014
20
-87.5
10
-87.500000000000014
20
-87.5
0
LWPOLYLINE
5
112
100
AcDbEntity
8
0
100
AcDbPolyline
90
4
70
1
43
0.0
10
92.5
20
87.5
10
287.5
20
87.5
10
287.5
20
-87.5
10
92.5
20
-87.5
0
ENDSEC
0
SECTION
2
OBJECTS
0
DICTIONARY
5
C
100
AcDbDictionary
3
ACAD_GROUP
350
D
3
ACAD_MLINESTYLE
350
17
0
DICTIONARY
5
D
100
AcDbDictionary
0
DICTIONARY
5
1A
330
C
100
AcDbDictionary
0
DICTIONARY
5
17
100
AcDbDictionary
0
ENDSEC
0
EOF
