0
SECTION
2
HEADER
9
$INSUNITS
70
4
9
$ACADVER
1
AC1014
9
$HANDSEED
5
FFFF
0
ENDSEC
0
SECTION
2
TABLES
0
TABLE
2
VPORT
5
8
100
AcDbSymbolTable
0
ENDTAB
0
TABLE
2
LTYPE
5
5
100
AcDbSymbolTable
0
LTYPE
5
14
100
AcDbSymbolTableRecord
100
AcDbLinetypeTableRecord
2
BYBLOCK
70
0
0
LTYPE
5
15
100
AcDbSymbolTableRecord
100
AcDbLinetypeTableRecord
2
BYLAYER
70
0
0
ENDTAB
0
TABLE
2
LAYER
5
2
100
AcDbSymbolTable
70
2
0
LAYER
5
50
100
AcDbSymbolTableRecord
100
AcDbLayerTableRecord
2
0
70
0
6
CONTINUOUS
0
ENDTAB
0
TABLE
2
STYLE
5
3
100
AcDbSymbolTable
70
1
0
STYLE
5
11
100
AcDbSymbolTableRecord
100
AcDbTextStyleTableRecord
2
STANDARD
70
0
0
ENDTAB
0
TABLE
2
VIEW
5
6
100
AcDbSymbolTable
70
0
0
ENDTAB
0
TABLE
2
UCS
5
7
100
AcDbSymbolTable
70
0
0
ENDTAB
0
TABLE
2
APPID
5
9
100
AcDbSymbolTable
70
2
0
APPID
5
12
100
AcDbSymbolTableRecord
100
AcDbRegAppTableRecord
2
ACAD
70
0
0
ENDTAB
0
TABLE
2
DIMSTYLE
5
A
100
AcDbSymbolTable
70
1
0
ENDTAB
0
TABLE
2
BLOCK_RECORD
5
1
100
AcDbSymbolTable
70
1
0
BLOCK_RECORD
5
1F
100
AcDbSymbolTableRecord
100
AcDbBlockTableRecord
2
*MODEL_SPACE
0
BLOCK_RECORD
5
1B
100
AcDbSymbolTableRecord
100
AcDbBlockTableRecord
2
*PAPER_SPACE
0
ENDTAB
0
ENDSEC
0
SECTION
2
BLOCKS
0
BLOCK
5
20
100
AcDbEntity
100
AcDbBlockBegin
2
*MODEL_SPACE
0
ENDBLK
5
21
100
AcDbEntity
100
AcDbBlockEnd
0
BLOCK
5
1C
100
AcDbEntity
100
AcDbBlockBegin
2
*PAPER_SPACE
0
ENDBLK
5
1D
100
AcDbEntity
100
AcDbBlockEnd
0
ENDSEC
0
SECTION
2
ENTITIES
0
LWPOLYLINE
5
100
100
AcDbEntity
8
0
100
AcDbPolyline
90
8
70
1
43
0.0
10
-30.000000000000007
20
-62.5
10
30.000000000000007
20
-62.5
10
30.000000000000007
20
37.5
10
33.175000000000011
20
37.5
10
33.175000000000011
20
57.5
10
30.000000000000007
20
57.5
10
30.000000000000004
20
72.5
10
-30.000000000000014
20
72.5
0
LWPOLYLINE
5
101
100
AcDbEntity
8
0
100
AcDbPolyline
90
8
70
1
43
0.0
10
36.825000000000003
20
-62.5
10
100
20
-62.5
10
100
20
72.5
10
36.825000000000003
20
72.5
10
36.825000000000003
20
-27.5
10
33.650000000000006
20
-27.5
10
33.650000000000006
20
-47.5
10
36.825000000000003
20
-47.5
0
LWPOLYLINE
5
102
100
AcDbEntity
8
0
100
AcDbPolyline
90
5
70
1
43
0.0
10
-95
20
-12.499999999999993
10
-95.026046202296484
20
12.437304750530087
42
-0.09046585468031558
10
-88.700355040060884
20
22.238326622636468
10
-66.414045418617633
20
-0.0014769243668544263
10
-88.653848965620895
20
-22.287786545810135
42
-0.09046585468031558
0
LWPOLYLINE
5
103
100
AcDbEntity
8
0
100
AcDbPolyline
90
5
70
1
43
0.0
10
-52.5
20
-30
10
-77.43730475053006
20
-30.026046202296449
42
-0.090465854680317703
10
-87.238326622636635
20
-23.700355040060671
10
-64.998523075633287
20
-1.4140454186175022
10
-42.712213454189907
20
-23.653848965620941
42
-0.090465854680315011
0
LWPOLYLINE
5
104
100
AcDbEntity
8
0
100
AcDbPolyline
90
5
70
1
43
0.0
10
-35
20
12.499999999999998
10
-34.973953797703544
20
-12.437304750530082
42
-0.09046585468031558
10
-41.299644959939137
20
-22.23832662263646
10
-63.585954581382786
20
0.0014769243666901133
10
-41.346151034379119
20
22.287786545810143
42
-0.090465854680315691
0
LWPOLYLINE
5
105
100
AcDbEntity
8
0
100
AcDbPolyline
90
5
70
1
43
0.0
10
-77.5
20
30
10
-52.56269524946994
20
30.026046202296467
42
-0.090465854680315122
10
-42.7616733773636
20
23.700355040060916
10
-65.001476924367154
20
1.4140454186173246
10
-87.287786545810704
20
23.653848965620362
42
-0.090465854680321506
0
LWPOLYLINE
5
106
100
AcDbEntity
8
0
100
AcDbPolyline
90
5
70
1
43
0.0
10
168.17499999999995
20
1.349999999999989
10
168.17499999999995
20
61.349999999999987
10
220.17499999999998
20
61.349999999999987
10
220.17499999999998
20
1.349999999999989
10
218.17499999999995
20
1.349999999999989
0
CIRCLE
5
107
100
AcDbEntity
8
0
100
AcDbCircle
10
215.04999999999995
20
57.599999999999987
30
0
40
2.4407030237208294
210
0
220
0
230
1
0
CIRCLE
5
108
100
AcDbEntity
8
0
100
AcDbCircle
10
215.04999999999995
20
50.099999999999987
30
0
40
2.4407030237208294
210
0
220
0
230
1
0
CIRCLE
5
109
100
AcDbEntity
8
0
100
AcDbCircle
10
215.04999999999995
20
35.099999999999987
30
0
40
2.4407030237208294
210
0
220
0
230
1
0
CIRCLE
5
110
100
AcDbEntity
8
0
100
AcDbCircle
10
215.04999999999995
20
42.599999999999987
30
0
40
2.4407030237208294
210
0
220
0
230
1
0
CIRCLE
5
111
100
AcDbEntity
8
0
100
AcDbCircle
10
215.04999999999995
20
5.099999999999989
30
0
40
2.4407030237208294
210
0
220
0
230
1
0
CIRCLE
5
112
100
AcDbEntity
8
0
100
AcDbCircle
10
215.04999999999995
20
12.599999999999989
30
0
40
2.4407030237208294
210
0
220
0
230
1
0
CIRCLE
5
113
100
AcDbEntity
8
0
100
AcDbCircle
10
215.04999999999995
20
20.099999999999987
30
0
40
2.4407030237208294
210
0
220
0
230
1
0
CIRCLE
5
114
100
AcDbEntity
8
0
100
AcDbCircle
10
215.04999999999995
20
27.599999999999987
30
0
40
2.4407030237208294
210
0
220
0
230
1
0
CIRCLE
5
115
100
AcDbEntity
8
0
100
AcDbCircle
10
208.79999999999995
20
5.099999999999989
30
0
40
2.4407030237208294
210
0
220
0
230
1
0
CIRCLE
5
116
100
AcDbEntity
8
0
100
AcDbCircle
10
208.79999999999995
20
12.599999999999989
30
0
40
2.4407030237208294
210
0
220
0
230
1
0
CIRCLE
5
117
100
AcDbEntity
8
0
100
AcDbCircle
10
208.79999999999995
20
20.099999999999987
30
0
40
2.4407030237208294
210
0
220
0
230
1
0
CIRCLE
5
118
100
AcDbEntity
8
0
100
AcDbCircle
10
208.79999999999995
20
27.599999999999987
30
0
40
2.4407030237208294
210
0
220
0
230
1
0
CIRCLE
5
119
100
AcDbEntity
8
0
100
AcDbCircle
10
208.79999999999995
20
35.099999999999987
30
0
40
2.4407030237208294
210
0
220
0
230
1
0
CIRCLE
5
120
100
AcDbEntity
8
0
100
AcDbCircle
10
208.79999999999995
20
42.599999999999987
30
0
40
2.4407030237208294
210
0
220
0
230
1
0
CIRCLE
5
121
100
AcDbEntity
8
0
100
AcDbCircle
10
208.79999999999995
20
50.099999999999987
30
0
40
2.4407030237208294
210
0
220
0
230
1
0
CIRCLE
5
122
100
AcDbEntity
8
0
100
AcDbCircle
10
208.79999999999995
20
57.599999999999987
30
0
40
2.4407030237208294
210
0
220
0
230
1
0
CIRCLE
5
123
100
AcDbEntity
8
0
100
AcDbCircle
10
196.29999999999995
20
57.599999999999987
30
0
40
2.4407030237208294
210
0
220
0
230
1
0
CIRCLE
5
124
100
AcDbEntity
8
0
100
AcDbCircle
10
196.29999999999995
20
50.099999999999987
30
0
40
2.4407030237208294
210
0
220
0
230
1
0
CIRCLE
5
125
100
AcDbEntity
8
0
100
AcDbCircle
10
196.29999999999995
20
42.599999999999987
30
0
40
2.4407030237208294
210
0
220
0
230
1
0
CIRCLE
5
126
100
AcDbEntity
8
0
100
AcDbCircle
10
196.29999999999995
20
35.099999999999987
30
0
40
2.4407030237208294
210
0
220
0
230
1
0
CIRCLE
5
127
100
AcDbEntity
8
0
100
AcDbCircle
10
196.29999999999995
20
27.599999999999987
30
0
40
2.4407030237208294
210
0
220
0
230
1
0
CIRCLE
5
128
100
AcDbEntity
8
0
100
AcDbCircle
10
196.29999999999995
20
20.099999999999987
30
0
40
2.4407030237208294
210
0
220
0
230
1
0
CIRCLE
5
129
100
AcDbEntity
8
0
100
AcDbCircle
10
196.29999999999995
20
12.599999999999989
30
0
40
2.4407030237208294
210
0
220
0
230
1
0
CIRCLE
5
130
100
AcDbEntity
8
0
100
AcDbCircle
10
196.29999999999995
20
5.099999999999989
30
0
40
2.4407030237208294
210
0
220
0
230
1
0
CIRCLE
5
131
100
AcDbEntity
8
0
100
AcDbCircle
10
202.54999999999995
20
5.099999999999989
30
0
40
2.4407030237208294
210
0
220
0
230
1
0
CIRCLE
5
132
100
AcDbEntity
8
0
100
AcDbCircle
10
202.54999999999995
20
12.599999999999989
30
0
40
2.4407030237208294
210
0
220
0
230
1
0
CIRCLE
5
133
100
AcDbEntity
8
0
100
AcDbCircle
10
202.54999999999995
20
20.099999999999987
30
0
40
2.4407030237208294
210
0
220
0
230
1
0
CIRCLE
5
134
100
AcDbEntity
8
0
100
AcDbCircle
10
202.54999999999995
20
27.599999999999987
30
0
40
2.4407030237208294
210
0
220
0
230
1
0
CIRCLE
5
135
100
AcDbEntity
8
0
100
AcDbCircle
10
202.54999999999995
20
35.099999999999987
30
0
40
2.4407030237208294
210
0
220
0
230
1
0
CIRCLE
5
136
100
AcDbEntity
8
0
100
AcDbCircle
10
202.54999999999995
20
42.599999999999987
30
0
40
2.4407030237208294
210
0
220
0
230
1
0
CIRCLE
5
137
100
AcDbEntity
8
0
100
AcDbCircle
10
202.54999999999995
20
50.099999999999987
30
0
40
2.4407030237208294
210
0
220
0
230
1
0
CIRCLE
5
138
100
AcDbEntity
8
0
100
AcDbCircle
10
202.54999999999995
20
57.599999999999987
30
0
40
2.4407030237208294
210
0
220
0
230
1
0
CIRCLE
5
139
100
AcDbEntity
8
0
100
AcDbCircle
10
177.54999999999995
20
50.099999999999987
30
0
40
2.4407030237208294
210
0
220
0
230
1
0
CIRCLE
5
140
100
AcDbEntity
8
0
100
AcDbCircle
10
183.79999999999995
20
5.099999999999989
30
0
40
2.4407030237208294
210
0
220
0
230
1
0
CIRCLE
5
141
100
AcDbEntity
8
0
100
AcDbCircle
10
190.04999999999995
20
57.599999999999987
30
0
40
2.4407030237208294
210
0
220
0
230
1
0
CIRCLE
5
142
100
AcDbEntity
8
0
100
AcDbCircle
10
177.54999999999995
20
12.599999999999989
30
0
40
2.4407030237208294
210
0
220
0
230
1
0
CIRCLE
5
143
100
AcDbEntity
8
0
100
AcDbCircle
10
183.79999999999995
20
20.099999999999987
30
0
40
2.4407030237208294
210
0
220
0
230
1
0
CIRCLE
5
144
100
AcDbEntity
8
0
100
AcDbCircle
10
190.04999999999995
20
35.099999999999987
30
0
40
2.4407030237208294
210
0
220
0
230
1
0
CIRCLE
5
145
100
AcDbEntity
8
0
100
AcDbCircle
10
190.04999999999995
20
12.599999999999989
30
0
40
2.4407030237208294
210
0
220
0
230
1
0
CIRCLE
5
146
100
AcDbEntity
8
0
100
AcDbCircle
10
190.04999999999995
20
50.099999999999987
30
0
40
2.4407030237208294
210
0
220
0
230
1
0
CIRCLE
5
147
100
AcDbEntity
8
0
100
AcDbCircle
10
183.79999999999995
20
57.599999999999987
30
0
40
2.4407030237208294
210
0
220
0
230
1
0
CIRCLE
5
148
100
AcDbEntity
8
0
100
AcDbCircle
10
177.54999999999995
20
20.099999999999987
30
0
40
2.4407030237208294
210
0
220
0
230
1
0
CIRCLE
5
149
100
AcDbEntity
8
0
100
AcDbCircle
10
190.04999999999995
20
5.099999999999989
30
0
40
2.4407030237208294
210
0
220
0
230
1
0
CIRCLE
5
150
100
AcDbEntity
8
0
100
AcDbCircle
10
190.04999999999995
20
20.099999999999987
30
0
40
2.4407030237208294
210
0
220
0
230
1
0
CIRCLE
5
151
100
AcDbEntity
8
0
100
AcDbCircle
10
177.54999999999995
20
42.599999999999987
30
0
40
2.4407030237208294
210
0
220
0
230
1
0
CIRCLE
5
152
100
AcDbEntity
8
0
100
AcDbCircle
10
183.79999999999995
20
42.599999999999987
30
0
40
2.4407030237208294
210
0
220
0
230
1
0
CIRCLE
5
153
100
AcDbEntity
8
0
100
AcDbCircle
10
177.54999999999995
20
27.599999999999987
30
0
40
2.4407030237208294
210
0
220
0
230
1
0
CIRCLE
5
154
100
AcDbEntity
8
0
100
AcDbCircle
10
183.79999999999995
20
27.599999999999987
30
0
40
2.4407030237208294
210
0
220
0
230
1
0
CIRCLE
5
155
100
AcDbEntity
8
0
100
AcDbCircle
10
190.04999999999995
20
42.599999999999987
30
0
40
2.4407030237208294
210
0
220
0
230
1
0
CIRCLE
5
156
100
AcDbEntity
8
0
100
AcDbCircle
10
183.79999999999995
20
50.099999999999987
30
0
40
2.4407030237208294
210
0
220
0
230
1
0
CIRCLE
5
157
100
AcDbEntity
8
0
100
AcDbCircle
10
190.04999999999995
20
27.599999999999987
30
0
40
2.4407030237208294
210
0
220
0
230
1
0
CIRCLE
5
158
100
AcDbEntity
8
0
100
AcDbCircle
10
183.79999999999995
20
12.599999999999989
30
0
40
2.4407030237208294
210
0
220
0
230
1
0
CIRCLE
5
159
100
AcDbEntity
8
0
100
AcDbCircle
10
177.54999999999995
20
35.099999999999987
30
0
40
2.4407030237208294
210
0
220
0
230
1
0
CIRCLE
5
160
100
AcDbEntity
8
0
100
AcDbCircle
10
177.54999999999995
20
5.099999999999989
30
0
40
2.4407030237208294
210
0
220
0
230
1
0
CIRCLE
5
161
100
AcDbEntity
8
0
100
AcDbCircle
10
183.79999999999995
20
35.099999999999987
30
0
40
2.4407030237208294
210
0
220
0
230
1
0
CIRCLE
5
162
100
AcDbEntity
8
0
100
AcDbCircle
10
177.54999999999995
20
57.599999999999987
30
0
40
2.4407030237208294
210
0
220
0
230
1
0
CIRCLE
5
163
100
AcDbEntity
8
0
100
AcDbCircle
10
135.57499999999996
20
-14.374999999999964
30
0
40
2.4407030237208294
210
0
220
0
230
1
0
CIRCLE
5
164
100
AcDbEntity
8
0
100
AcDbCircle
10
135.57499999999993
20
-45.624999999999964
30
0
40
2.4407030237208294
210
0
220
0
230
1
0
CIRCLE
5
165
100
AcDbEntity
8
0
100
AcDbCircle
10
135.57499999999996
20
-26.874999999999964
30
0
40
2.4407030237208294
210
0
220
0
230
1
0
CIRCLE
5
166
100
AcDbEntity
8
0
100
AcDbCircle
10
135.57499999999993
20
-51.874999999999964
30
0
40
2.4407030237208294
210
0
220
0
230
1
0
CIRCLE
5
167
100
AcDbEntity
8
0
100
AcDbCircle
10
135.57499999999993
20
-39.374999999999972
30
0
40
2.4407030237208294
210
0
220
0
230
1
0
CIRCLE
5
168
100
AcDbEntity
8
0
100
AcDbCircle
10
135.57499999999993
20
-33.124999999999972
30
0
40
2.4407030237208294
210
0
220
0
230
1
0
CIRCLE
5
169
100
AcDbEntity
8
0
100
AcDbCircle
10
135.57499999999996
20
-20.624999999999964
30
0
40
2.4407030237208294
210
0
220
0
230
1
0
CIRCLE
5
170
100
AcDbEntity
8
0
100
AcDbCircle
10
113.07499999999993
20
-39.374999999999936
30
0
40
2.4407030237208294
210
0
220
0
230
1
0
CIRCLE
5
171
100
AcDbEntity
8
0
100
AcDbCircle
10
128.0749999999999
20
-51.874999999999972
30
0
40
2.4407030237208294
210
0
220
0
230
1
0
CIRCLE
5
172
100
AcDbEntity
8
0
100
AcDbCircle
10
150.57499999999993
20
-51.874999999999993
30
0
40
2.4407030237208294
210
0
220
0
230
1
0
CIRCLE
5
173
100
AcDbEntity
8
0
100
AcDbCircle
10
105.57499999999992
20
-39.374999999999936
30
0
40
2.4407030237208294
210
0
220
0
230
1
0
CIRCLE
5
174
100
AcDbEntity
8
0
100
AcDbCircle
10
120.57499999999993
20
-33.124999999999943
30
0
40
2.4407030237208294
210
0
220
0
230
1
0
CIRCLE
5
175
100
AcDbEntity
8
0
100
AcDbCircle
10
128.07499999999993
20
-33.124999999999957
30
0
40
2.4407030237208294
210
0
220
0
230
1
0
CIRCLE
5
176
100
AcDbEntity
8
0
100
AcDbCircle
10
158.07499999999993
20
-45.624999999999993
30
0
40
2.4407030237208294
210
0
220
0
230
1
0
CIRCLE
5
177
100
AcDbEntity
8
0
100
AcDbCircle
10
158.07499999999996
20
-33.124999999999993
30
0
40
2.4407030237208294
210
0
220
0
230
1
0
CIRCLE
5
178
100
AcDbEntity
8
0
100
AcDbCircle
10
120.57499999999996
20
-20.624999999999947
30
0
40
2.4407030237208294
210
0
220
0
230
1
0
CIRCLE
5
179
100
AcDbEntity
8
0
100
AcDbCircle
10
150.57499999999996
20
-14.374999999999982
30
0
40
2.4407030237208294
210
0
220
0
230
1
0
CIRCLE
5
180
100
AcDbEntity
8
0
100
AcDbCircle
10
150.57499999999993
20
-33.124999999999993
30
0
40
2.4407030237208294
210
0
220
0
230
1
0
CIRCLE
5
181
100
AcDbEntity
8
0
100
AcDbCircle
10
128.07499999999993
20
-45.624999999999957
30
0
40
2.4407030237208294
210
0
220
0
230
1
0
CIRCLE
5
182
100
AcDbEntity
8
0
100
AcDbCircle
10
150.57499999999993
20
-45.624999999999986
30
0
40
2.4407030237208294
210
0
220
0
230
1
0
CIRCLE
5
183
100
AcDbEntity
8
0
100
AcDbCircle
10
158.07499999999993
20
-51.875
30
0
40
2.4407030237208294
210
0
220
0
230
1
0
CIRCLE
5
184
100
AcDbEntity
8
0
100
AcDbCircle
10
143.07499999999996
20
-14.374999999999979
30
0
40
2.4407030237208294
210
0
220
0
230
1
0
CIRCLE
5
185
100
AcDbEntity
8
0
100
AcDbCircle
10
150.57499999999996
20
-20.624999999999982
30
0
40
2.4407030237208294
210
0
220
0
230
1
0
CIRCLE
5
186
100
AcDbEntity
8
0
100
AcDbCircle
10
128.07499999999993
20
-39.374999999999964
30
0
40
2.4407030237208294
210
0
220
0
230
1
0
CIRCLE
5
187
100
AcDbEntity
8
0
100
AcDbCircle
10
120.57499999999992
20
-45.624999999999957
30
0
40
2.4407030237208294
210
0
220
0
230
1
0
CIRCLE
5
188
100
AcDbEntity
8
0
100
AcDbCircle
10
143.07499999999993
20
-45.624999999999972
30
0
40
2.4407030237208294
210
0
220
0
230
1
0
CIRCLE
5
189
100
AcDbEntity
8
0
100
AcDbCircle
10
105.57499999999996
20
-14.374999999999929
30
0
40
2.4407030237208294
210
0
220
0
230
1
0
CIRCLE
5
190
100
AcDbEntity
8
0
100
AcDbCircle
10
113.07499999999996
20
-14.374999999999938
30
0
40
2.4407030237208294
210
0
220
0
230
1
0
CIRCLE
5
191
100
AcDbEntity
8
0
100
AcDbCircle
10
143.07499999999993
20
-51.874999999999986
30
0
40
2.4407030237208294
210
0
220
0
230
1
0
CIRCLE
5
192
100
AcDbEntity
8
0
100
AcDbCircle
10
143.07499999999993
20
-39.374999999999972
30
0
40
2.4407030237208294
210
0
220
0
230
1
0
CIRCLE
5
193
100
AcDbEntity
8
0
100
AcDbCircle
10
158.07499999999993
20
-39.375
30
0
40
2.4407030237208294
210
0
220
0
230
1
0
CIRCLE
5
194
100
AcDbEntity
8
0
100
AcDbCircle
10
105.5749999999999
20
-51.874999999999936
30
0
40
2.4407030237208294
210
0
220
0
230
1
0
CIRCLE
5
195
100
AcDbEntity
8
0
100
AcDbCircle
10
120.57499999999992
20
-39.374999999999957
30
0
40
2.4407030237208294
210
0
220
0
230
1
0
CIRCLE
5
196
100
AcDbEntity
8
0
100
AcDbCircle
10
113.07499999999993
20
-26.874999999999947
30
0
40
2.4407030237208294
210
0
220
0
230
1
0
CIRCLE
5
197
100
AcDbEntity
8
0
100
AcDbCircle
10
128.07499999999996
20
-20.624999999999964
30
0
40
2.4407030237208294
210
0
220
0
230
1
0
CIRCLE
5
198
100
AcDbEntity
8
0
100
AcDbCircle
10
158.07499999999996
20
-26.874999999999996
30
0
40
2.4407030237208294
210
0
220
0
230
1
0
CIRCLE
5
199
100
AcDbEntity
8
0
100
AcDbCircle
10
113.0749999999999
20
-51.874999999999936
30
0
40
2.4407030237208294
210
0
220
0
230
1
0
CIRCLE
5
200
100
AcDbEntity
8
0
100
AcDbCircle
10
120.57499999999996
20
-26.874999999999957
30
0
40
2.4407030237208294
210
0
220
0
230
1
0
CIRCLE
5
201
100
AcDbEntity
8
0
100
AcDbCircle
10
113.07499999999992
20
-45.624999999999936
30
0
40
2.4407030237208294
210
0
220
0
230
1
0
CIRCLE
5
202
100
AcDbEntity
8
0
100
AcDbCircle
10
113.07499999999993
20
-33.124999999999936
30
0
40
2.4407030237208294
210
0
220
0
230
1
0
CIRCLE
5
203
100
AcDbEntity
8
0
100
AcDbCircle
10
150.57499999999993
20
-39.374999999999986
30
0
40
2.4407030237208294
210
0
220
0
230
1
0
CIRCLE
5
204
100
AcDbEntity
8
0
100
AcDbCircle
10
105.57499999999996
20
-26.874999999999922
30
0
40
2.4407030237208294
210
0
220
0
230
1
0
CIRCLE
5
205
100
AcDbEntity
8
0
100
AcDbCircle
10
128.07499999999996
20
-26.874999999999957
30
0
40
2.4407030237208294
210
0
220
0
230
1
0
CIRCLE
5
206
100
AcDbEntity
8
0
100
AcDbCircle
10
150.57499999999996
20
-26.874999999999982
30
0
40
2.4407030237208294
210
0
220
0
230
1
0
CIRCLE
5
207
100
AcDbEntity
8
0
100
AcDbCircle
10
120.57499999999992
20
-51.874999999999957
30
0
40
2.4407030237208294
210
0
220
0
230
1
0
CIRCLE
5
208
100
AcDbEntity
8
0
100
AcDbCircle
10
105.57499999999996
20
-20.624999999999929
30
0
40
2.4407030237208294
210
0
220
0
230
1
0
CIRCLE
5
209
100
AcDbEntity
8
0
100
AcDbCircle
10
143.07499999999996
20
-26.874999999999972
30
0
40
2.4407030237208294
210
0
220
0
230
1
0
CIRCLE
5
210
100
AcDbEntity
8
0
100
AcDbCircle
10
105.57499999999993
20
-33.124999999999922
30
0
40
2.4407030237208294
210
0
220
0
230
1
0
CIRCLE
5
211
100
AcDbEntity
8
0
100
AcDbCircle
10
143.07499999999993
20
-33.124999999999986
30
0
40
2.4407030237208294
210
0
220
0
230
1
0
CIRCLE
5
212
100
AcDbEntity
8
0
100
AcDbCircle
10
158.07499999999996
20
-14.374999999999991
30
0
40
2.4407030237208294
210
0
220
0
230
1
0
CIRCLE
5
213
100
AcDbEntity
8
0
100
AcDbCircle
10
120.57499999999996
20
-14.374999999999947
30
0
40
2.4407030237208294
210
0
220
0
230
1
0
CIRCLE
5
214
100
AcDbEntity
8
0
100
AcDbCircle
10
158.07499999999996
20
-20.624999999999993
30
0
40
2.4407030237208294
210
0
220
0
230
1
0
CIRCLE
5
215
100
AcDbEntity
8
0
100
AcDbCircle
10
113.07499999999996
20
-20.624999999999936
30
0
40
2.4407030237208294
210
0
220
0
230
1
0
CIRCLE
5
216
100
AcDbEntity
8
0
100
AcDbCircle
10
105.57499999999992
20
-45.624999999999936
30
0
40
2.4407030237208294
210
0
220
0
230
1
0
CIRCLE
5
217
100
AcDbEntity
8
0
100
AcDbCircle
10
128.07499999999996
20
-14.374999999999956
30
0
40
2.4407030237208294
210
0
220
0
230
1
0
CIRCLE
5
218
100
AcDbEntity
8
0
100
AcDbCircle
10
143.07499999999996
20
-20.624999999999972
30
0
40
2.4407030237208294
210
0
220
0
230
1
0
CIRCLE
5
219
100
AcDbEntity
8
0
100
AcDbCircle
10
105.57499999999999
20
57.59999999999998
30
0
40
2.4999999999999951
210
0
220
0
230
1
0
CIRCLE
5
220
100
AcDbEntity
8
0
100
AcDbCircle
10
105.42805789779437
20
50.25293977642054
30
0
40
2.4999999999999951
210
0
220
0
230
1
0
CIRCLE
5
221
100
AcDbEntity
8
0
100
AcDbCircle
10
105.57499999999999
20
35.099999999999966
30
0
40
2.4999999999999951
210
0
220
0
230
1
0
CIRCLE
5
222
100
AcDbEntity
8
0
100
AcDbCircle
10
105.42805789779437
20
42.447060223579399
30
0
40
2.4999999999999951
210
0
220
0
230
1
0
CIRCLE
5
223
100
AcDbEntity
8
0
100
AcDbCircle
10
113.2219421022056
20
42.447060223579399
30
0
40
2.4999999999999951
210
0
220
0
230
1
0
CIRCLE
5
224
100
AcDbEntity
8
0
100
AcDbCircle
10
113.07499999999999
20
35.099999999999966
30
0
40
2.4999999999999951
210
0
220
0
230
1
0
CIRCLE
5
225
100
AcDbEntity
8
0
100
AcDbCircle
10
113.2219421022056
20
50.25293977642054
30
0
40
2.4999999999999951
210
0
220
0
230
1
0
CIRCLE
5
226
100
AcDbEntity
8
0
100
AcDbCircle
10
113.07499999999999
20
57.59999999999998
30
0
40
2.4999999999999951
210
0
220
0
230
1
0
CIRCLE
5
227
100
AcDbEntity
8
0
100
AcDbCircle
10
120.42805789779437
20
42.447060223579399
30
0
40
2.4999999999999951
210
0
220
0
230
1
0
CIRCLE
5
228
100
AcDbEntity
8
0
100
AcDbCircle
10
120.57499999999999
20
35.099999999999966
30
0
40
2.4999999999999951
210
0
220
0
230
1
0
CIRCLE
5
229
100
AcDbEntity
8
0
100
AcDbCircle
10
128.22194210220562
20
42.447060223579399
30
0
40
2.4999999999999951
210
0
220
0
230
1
0
CIRCLE
5
230
100
AcDbEntity
8
0
100
AcDbCircle
10
128.22194210220562
20
50.25293977642054
30
0
40
2.4999999999999951
210
0
220
0
230
1
0
CIRCLE
5
231
100
AcDbEntity
8
0
100
AcDbCircle
10
128.07499999999999
20
57.59999999999998
30
0
40
2.4999999999999951
210
0
220
0
230
1
0
CIRCLE
5
232
100
AcDbEntity
8
0
100
AcDbCircle
10
120.57499999999999
20
57.59999999999998
30
0
40
2.4999999999999951
210
0
220
0
230
1
0
CIRCLE
5
233
100
AcDbEntity
8
0
100
AcDbCircle
10
120.42805789779437
20
50.25293977642054
30
0
40
2.4999999999999951
210
0
220
0
230
1
0
CIRCLE
5
234
100
AcDbEntity
8
0
100
AcDbCircle
10
128.07499999999999
20
35.099999999999966
30
0
40
2.4999999999999951
210
0
220
0
230
1
0
CIRCLE
5
235
100
AcDbEntity
8
0
100
AcDbCircle
10
135.57499999999996
20
27.599999999999987
30
0
40
2.4999999999999951
210
0
220
0
230
1
0
CIRCLE
5
236
100
AcDbEntity
8
0
100
AcDbCircle
10
135.57499999999999
20
12.599999999999989
30
0
40
2.4999999999999951
210
0
220
0
230
1
0
CIRCLE
5
237
100
AcDbEntity
8
0
100
AcDbCircle
10
135.57499999999996
20
5.099999999999989
30
0
40
2.4999999999999951
210
0
220
0
230
1
0
CIRCLE
5
238
100
AcDbEntity
8
0
100
AcDbCircle
10
142.92206022357939
20
4.9530578977943751
30
0
40
2.4999999999999951
210
0
220
0
230
1
0
CIRCLE
5
239
100
AcDbEntity
8
0
100
AcDbCircle
10
142.92206022357939
20
12.746942102205603
30
0
40
2.4999999999999951
210
0
220
0
230
1
0
CIRCLE
5
240
100
AcDbEntity
8
0
100
AcDbCircle
10
150.72793977642056
20
12.746942102205603
30
0
40
2.4999999999999951
210
0
220
0
230
1
0
CIRCLE
5
241
100
AcDbEntity
8
0
100
AcDbCircle
10
150.72793977642056
20
4.9530578977943662
30
0
40
2.4999999999999951
210
0
220
0
230
1
0
CIRCLE
5
242
100
AcDbEntity
8
0
100
AcDbCircle
10
158.07499999999999
20
5.099999999999989
30
0
40
2.4999999999999951
210
0
220
0
230
1
0
CIRCLE
5
243
100
AcDbEntity
8
0
100
AcDbCircle
10
158.07499999999999
20
12.59999999999998
30
0
40
2.4999999999999951
210
0
220
0
230
1
0
CIRCLE
5
244
100
AcDbEntity
8
0
100
AcDbCircle
10
142.92206022357939
20
27.746942102205601
30
0
40
2.4999999999999951
210
0
220
0
230
1
0
CIRCLE
5
245
100
AcDbEntity
8
0
100
AcDbCircle
10
142.92206022357939
20
19.953057897794373
30
0
40
2.4999999999999951
210
0
220
0
230
1
0
CIRCLE
5
246
100
AcDbEntity
8
0
100
AcDbCircle
10
135.57499999999996
20
20.099999999999987
30
0
40
2.4999999999999951
210
0
220
0
230
1
0
CIRCLE
5
247
100
AcDbEntity
8
0
100
AcDbCircle
10
150.72793977642056
20
19.953057897794373
30
0
40
2.4999999999999951
210
0
220
0
230
1
0
CIRCLE
5
248
100
AcDbEntity
8
0
100
AcDbCircle
10
158.07499999999999
20
20.099999999999987
30
0
40
2.4999999999999951
210
0
220
0
230
1
0
CIRCLE
5
249
100
AcDbEntity
8
0
100
AcDbCircle
10
158.07499999999999
20
27.599999999999987
30
0
40
2.4999999999999951
210
0
220
0
230
1
0
CIRCLE
5
250
100
AcDbEntity
8
0
100
AcDbCircle
10
150.72793977642056
20
27.746942102205598
30
0
40
2.4999999999999951
210
0
220
0
230
1
0
CIRCLE
5
251
100
AcDbEntity
8
0
100
AcDbCircle
10
120.42805789779437
20
20.252939776420575
30
0
40
2.4999999999999951
210
0
220
0
230
1
0
CIRCLE
5
252
100
AcDbEntity
8
0
100
AcDbCircle
10
120.57499999999999
20
27.600000000000016
30
0
40
2.4999999999999951
210
0
220
0
230
1
0
CIRCLE
5
253
100
AcDbEntity
8
0
100
AcDbCircle
10
128.07499999999999
20
27.600000000000016
30
0
40
2.4999999999999951
210
0
220
0
230
1
0
CIRCLE
5
254
100
AcDbEntity
8
0
100
AcDbCircle
10
128.22194210220562
20
20.252939776420575
30
0
40
2.4999999999999951
210
0
220
0
230
1
0
CIRCLE
5
255
100
AcDbEntity
8
0
100
AcDbCircle
10
128.22194210220562
20
12.447060223579438
30
0
40
2.4999999999999951
210
0
220
0
230
1
0
CIRCLE
5
256
100
AcDbEntity
8
0
100
AcDbCircle
10
128.07499999999999
20
5.0999999999999979
30
0
40
2.4999999999999951
210
0
220
0
230
1
0
CIRCLE
5
257
100
AcDbEntity
8
0
100
AcDbCircle
10
120.57499999999999
20
5.0999999999999979
30
0
40
2.4999999999999951
210
0
220
0
230
1
0
CIRCLE
5
258
100
AcDbEntity
8
0
100
AcDbCircle
10
120.42805789779437
20
12.447060223579438
30
0
40
2.4999999999999951
210
0
220
0
230
1
0
CIRCLE
5
259
100
AcDbEntity
8
0
100
AcDbCircle
10
113.2219421022056
20
12.447060223579438
30
0
40
2.4999999999999951
210
0
220
0
230
1
0
CIRCLE
5
260
100
AcDbEntity
8
0
100
AcDbCircle
10
113.07499999999999
20
5.0999999999999979
30
0
40
2.4999999999999951
210
0
220
0
230
1
0
CIRCLE
5
261
100
AcDbEntity
8
0
100
AcDbCircle
10
105.57499999999999
20
5.0999999999999979
30
0
40
2.4999999999999951
210
0
220
0
230
1
0
CIRCLE
5
262
100
AcDbEntity
8
0
100
AcDbCircle
10
105.42805789779437
20
12.447060223579438
30
0
40
2.4999999999999951
210
0
220
0
230
1
0
CIRCLE
5
263
100
AcDbEntity
8
0
100
AcDbCircle
10
105.57499999999999
20
27.600000000000016
30
0
40
2.4999999999999951
210
0
220
0
230
1
0
CIRCLE
5
264
100
AcDbEntity
8
0
100
AcDbCircle
10
105.42805789779437
20
20.252939776420575
30
0
40
2.4999999999999951
210
0
220
0
230
1
0
CIRCLE
5
265
100
AcDbEntity
8
0
100
AcDbCircle
10
113.2219421022056
20
20.252939776420575
30
0
40
2.4999999999999951
210
0
220
0
230
1
0
CIRCLE
5
266
100
AcDbEntity
8
0
100
AcDbCircle
10
113.07499999999999
20
27.600000000000016
30
0
40
2.4999999999999951
210
0
220
0
230
1
0
CIRCLE
5
267
100
AcDbEntity
8
0
100
AcDbCircle
10
142.92206022357939
20
34.953057897794373
30
0
40
2.4999999999999951
210
0
220
0
230
1
0
CIRCLE
5
268
100
AcDbEntity
8
0
100
AcDbCircle
10
135.57499999999996
20
35.099999999999987
30
0
40
2.4999999999999951
210
0
220
0
230
1
0
CIRCLE
5
269
100
AcDbEntity
8
0
100
AcDbCircle
10
135.57499999999996
20
42.599999999999987
30
0
40
2.4999999999999951
210
0
220
0
230
1
0
CIRCLE
5
270
100
AcDbEntity
8
0
100
AcDbCircle
10
135.57499999999999
20
50.099999999999987
30
0
40
2.4999999999999951
210
0
220
0
230
1
0
CIRCLE
5
271
100
AcDbEntity
8
0
100
AcDbCircle
10
135.57499999999996
20
57.599999999999987
30
0
40
2.4999999999999951
210
0
220
0
230
1
0
CIRCLE
5
272
100
AcDbEntity
8
0
100
AcDbCircle
10
142.92206022357939
20
57.746942102205601
30
0
40
2.4999999999999951
210
0
220
0
230
1
0
CIRCLE
5
273
100
AcDbEntity
8
0
100
AcDbCircle
10
142.92206022357939
20
49.953057897794373
30
0
40
2.4999999999999951
210
0
220
0
230
1
0
CIRCLE
5
274
100
AcDbEntity
8
0
100
AcDbCircle
10
142.92206022357939
20
42.746942102205601
30
0
40
2.4999999999999951
210
0
220
0
230
1
0
CIRCLE
5
275
100
AcDbEntity
8
0
100
AcDbCircle
10
150.72793977642056
20
34.95305789779438
30
0
40
2.4999999999999951
210
0
220
0
230
1
0
CIRCLE
5
276
100
AcDbEntity
8
0
100
AcDbCircle
10
150.72793977642056
20
42.746942102205601
30
0
40
2.4999999999999951
210
0
220
0
230
1
0
CIRCLE
5
277
100
AcDbEntity
8
0
100
AcDbCircle
10
150.72793977642056
20
49.953057897794373
30
0
40
2.4999999999999951
210
0
220
0
230
1
0
CIRCLE
5
278
100
AcDbEntity
8
0
100
AcDbCircle
10
150.72793977642056
20
57.746942102205608
30
0
40
2.4999999999999951
210
0
220
0
230
1
0
CIRCLE
5
279
100
AcDbEntity
8
0
100
AcDbCircle
10
158.07499999999999
20
35.099999999999987
30
0
40
2.4999999999999951
210
0
220
0
230
1
0
CIRCLE
5
280
100
AcDbEntity
8
0
100
AcDbCircle
10
158.07499999999999
20
42.599999999999987
30
0
40
2.4999999999999951
210
0
220
0
230
1
0
CIRCLE
5
281
100
AcDbEntity
8
0
100
AcDbCircle
10
158.07499999999999
20
50.099999999999994
30
0
40
2.4999999999999951
210
0
220
0
230
1
0
CIRCLE
5
282
100
AcDbEntity
8
0
100
AcDbCircle
10
158.07499999999999
20
57.599999999999987
30
0
40
2.4999999999999951
210
0
220
0
230
1
0
LWPOLYLINE
5
283
100
AcDbEntity
8
0
100
AcDbPolyline
90
2
70
1
43
0.0
10
108.01570302372082
20
-8.1249999999999201
42
-0.99999999999999989
10
103.13429697627913
20
-8.1249999999999201
0
LWPOLYLINE
5
284
100
AcDbEntity
8
0
100
AcDbPolyline
90
2
70
1
43
0.0
10
115.51570302372079
20
-8.1249999999999734
42
-0.99999999999999989
10
110.63429697627912
20
-8.1249999999999201
0
LWPOLYLINE
5
285
100
AcDbEntity
8
0
100
AcDbPolyline
90
2
70
1
43
0.0
10
123.01570302372082
20
-8.1249999999999734
42
-0.99999999999999989
10
118.13429697627913
20
-8.1249999999999201
0
LWPOLYLINE
5
286
100
AcDbEntity
8
0
100
AcDbPolyline
90
2
70
1
43
0.0
10
130.51570302372082
20
-8.1249999999999911
42
-0.99999999999999989
10
125.63429697627913
20
-8.1249999999999201
0
LWPOLYLINE
5
287
100
AcDbEntity
8
0
100
AcDbPolyline
90
2
70
1
43
0.0
10
138.01570302372082
20
-8.125
42
-0.99999999999999989
10
133.13429697627913
20
-8.1249999999999201
0
LWPOLYLINE
5
288
100
AcDbEntity
8
0
100
AcDbPolyline
90
2
70
1
43
0.0
10
145.51570302372082
20
-8.1250000000000266
42
-0.99999999999999989
10
140.63429697627916
20
-8.1249999999999201
0
LWPOLYLINE
5
289
100
AcDbEntity
8
0
100
AcDbPolyline
90
2
70
1
43
0.0
10
153.01570302372082
20
-8.1250000000000444
42
-0.99999999999999989
10
148.13429697627916
20
-8.1249999999999201
0
LWPOLYLINE
5
290
100
AcDbEntity
8
0
100
AcDbPolyline
90
2
70
1
43
0.0
10
160.51570302372085
20
-8.1250000000000568
42
-0.99999999999999989
10
155.63429697627916
20
-8.1249999999999201
0
LWPOLYLINE
5
291
100
AcDbEntity
8
0
100
AcDbPolyline
90
2
70
1
43
0.0
10
171.2999999999999
20
15.040703023720816
10
171.2999999999999
20
10.159296976279144
42
0.99999999999999989
0
LWPOLYLINE
5
292
100
AcDbEntity
8
0
100
AcDbPolyline
90
2
70
1
43
0.0
10
171.2999999999999
20
60.040703023720837
42
-0.99999999999999989
10
171.2999999999999
20
55.159296976279165
0
LWPOLYLINE
5
293
100
AcDbEntity
8
0
100
AcDbPolyline
90
2
70
1
43
0.0
10
171.2999999999999
20
7.5407030237208161
10
171.2999999999999
20
2.6592969762791441
42
0.99999999999999989
0
LWPOLYLINE
5
294
100
AcDbEntity
8
0
100
AcDbPolyline
90
2
70
1
43
0.0
10
171.30000000000001
20
30.040703023720816
42
-0.99999999999999989
10
171.2999999999999
20
25.15929697627918
0
LWPOLYLINE
5
295
100
AcDbEntity
8
0
100
AcDbPolyline
90
2
70
1
43
0.0
10
171.2999999999999
20
22.540703023720816
10
171.2999999999999
20
17.659296976279144
42
0.99999999999999989
0
LWPOLYLINE
5
296
100
AcDbEntity
8
0
100
AcDbPolyline
90
2
70
1
43
0.0
10
171.2999999999999
20
47.659296976279172
10
171.30000000000001
20
52.540703023720859
42
-0.99999999999999989
0
LWPOLYLINE
5
297
100
AcDbEntity
8
0
100
AcDbPolyline
90
2
70
1
43
0.0
10
171.2999999999999
20
45.040703023720816
42
-0.99999999999999989
10
171.2999999999999
20
40.159296976279165
0
LWPOLYLINE
5
298
100
AcDbEntity
8
0
100
AcDbPolyline
90
2
70
1
43
0.0
10
171.2999999999999
20
32.659296976279165
10
171.30000000000001
20
37.540703023720837
42
-0.99999999999999989
0
LWPOLYLINE
5
299
100
AcDbEntity
8
0
100
AcDbPolyline
90
4
70
1
43
0.0
10
-96.587499999999991
20
31.587499999999995
10
-33.412500000000009
20
31.587499999999995
10
-33.412500000000009
20
-31.587499999999995
10
-96.587499999999991
20
-31.587499999999995
0
LINE
5
300
100
AcDbEntity
8
0
100
AcDbLine
10
101.82499999999999
20
64.807654823329401
30
0
11
101.82499999999999
21
1.632654823329398
31
0
0
LWPOLYLINE
5
301
100
AcDbEntity
8
0
100
AcDbPolyline
90
4
70
1
43
0.0
10
165
20
-5.645833333333421
10
101.82500000000002
20
-5.645833333333421
10
101.82500000000002
20
-57.645833333333428
10
165
20
-57.645833333333428
0
LINE
5
302
100
AcDbEntity
8
0
100
AcDbLine
10
165
20
64.807654823329401
30
0
11
101.82499999999999
21
64.807654823329401
31
0
0
LINE
5
303
100
AcDbEntity
8
0
100
AcDbLine
10
101.82499999999999
20
1.632654823329398
30
0
11
165
21
1.632654823329398
31
0
0
LINE
5
304
100
AcDbEntity
8
0
100
AcDbLine
10
165
20
1.632654823329398
30
0
11
165
21
64.807654823329401
31
0
0
ENDSEC
0
SECTION
2
OBJECTS
0
DICTIONARY
5
C
100
AcDbDictionary
3
ACAD_GROUP
350
D
3
ACAD_MLINESTYLE
350
17
0
DICTIONARY
5
D
100
AcDbDictionary
0
DICTIONARY
5
1A
330
C
100
AcDbDictionary
0
DICTIONARY
5
17
100
AcDbDictionary
0
ENDSEC
0
EOF
