0
SECTION
2
HEADER
9
$INSUNITS
70
4
9
$ACADVER
1
AC1014
9
$HANDSEED
5
FFFF
0
ENDSEC
0
SECTION
2
TABLES
0
TABLE
2
VPORT
5
8
100
AcDbSymbolTable
0
ENDTAB
0
TABLE
2
LTYPE
5
5
100
AcDbSymbolTable
0
LTYPE
5
14
100
AcDbSymbolTableRecord
100
AcDbLinetypeTableRecord
2
BYBLOCK
70
0
0
LTYPE
5
15
100
AcDbSymbolTableRecord
100
AcDbLinetypeTableRecord
2
BYLAYER
70
0
0
ENDTAB
0
TABLE
2
LAYER
5
2
100
AcDbSymbolTable
70
2
0
LAYER
5
50
100
AcDbSymbolTableRecord
100
AcDbLayerTableRecord
2
0
70
0
6
CONTINUOUS
0
ENDTAB
0
TABLE
2
STYLE
5
3
100
AcDbSymbolTable
70
1
0
STYLE
5
11
100
AcDbSymbolTableRecord
100
AcDbTextStyleTableRecord
2
STANDARD
70
0
0
ENDTAB
0
TABLE
2
VIEW
5
6
100
AcDbSymbolTable
70
0
0
ENDTAB
0
TABLE
2
UCS
5
7
100
AcDbSymbolTable
70
0
0
ENDTAB
0
TABLE
2
APPID
5
9
100
AcDbSymbolTable
70
2
0
APPID
5
12
100
AcDbSymbolTableRecord
100
AcDbRegAppTableRecord
2
ACAD
70
0
0
ENDTAB
0
TABLE
2
DIMSTYLE
5
A
100
AcDbSymbolTable
70
1
0
ENDTAB
0
TABLE
2
BLOCK_RECORD
5
1
100
AcDbSymbolTable
70
1
0
BLOCK_RECORD
5
1F
100
AcDbSymbolTableRecord
100
AcDbBlockTableRecord
2
*MODEL_SPACE
0
BLOCK_RECORD
5
1B
100
AcDbSymbolTableRecord
100
AcDbBlockTableRecord
2
*PAPER_SPACE
0
ENDTAB
0
ENDSEC
0
SECTION
2
BLOCKS
0
BLOCK
5
20
100
AcDbEntity
100
AcDbBlockBegin
2
*MODEL_SPACE
0
ENDBLK
5
21
100
AcDbEntity
100
AcDbBlockEnd
0
BLOCK
5
1C
100
AcDbEntity
100
AcDbBlockBegin
2
*PAPER_SPACE
0
ENDBLK
5
1D
100
AcDbEntity
100
AcDbBlockEnd
0
ENDSEC
0
SECTION
2
ENTITIES
0
LINE
5
100
100
AcDbEntity
8
0
100
AcDbLine
10
80
20
-100
30
0
11
80
21
150
31
0
0
LINE
5
101
100
AcDbEntity
8
0
100
AcDbLine
10
10
20
-106.34999999999999
30
0
11
-10
21
-106.34999999999999
31
0
0
LINE
5
102
100
AcDbEntity
8
0
100
AcDbLine
10
-10
20
-106.34999999999999
30
0
11
-10
21
-100
31
0
0
LINE
5
103
100
AcDbEntity
8
0
100
AcDbLine
10
10
20
-106.34999999999999
30
0
11
10
21
-100
31
0
0
LINE
5
104
100
AcDbEntity
8
0
100
AcDbLine
10
10
20
-100
30
0
11
80
21
-100
31
0
0
LINE
5
105
100
AcDbEntity
8
0
100
AcDbLine
10
-10
20
-100
30
0
11
-80
21
-100
31
0
0
LWPOLYLINE
5
106
100
AcDbEntity
8
0
100
AcDbPolyline
90
8
70
1
43
0.0
10
245
20
-100
10
175
20
-100
10
175
20
-106.34999999999999
10
155
20
-106.34999999999999
10
155
20
-100
10
85
20
-100
10
85
20
150
10
245
20
150
0
LWPOLYLINE
5
107
100
AcDbEntity
8
0
100
AcDbPolyline
90
8
70
1
43
0.0
10
350
20
-106.34999999999999
10
330
20
-106.34999999999999
10
330
20
-100
10
256.82499999999999
20
-99.999999999999986
10
256.82499999999999
20
149.99999999999997
10
423.17500000000001
20
149.99999999999997
10
423.17500000000001
20
-99.999999999999986
10
350
20
-100
0
LINE
5
108
100
AcDbEntity
8
0
100
AcDbLine
10
-185
20
-106.34999999999999
30
0
11
-165
21
-106.34999999999999
31
0
0
LINE
5
109
100
AcDbEntity
8
0
100
AcDbLine
10
-165
20
-106.34999999999999
30
0
11
-165
21
-100
31
0
0
LINE
5
110
100
AcDbEntity
8
0
100
AcDbLine
10
-185
20
-106.34999999999999
30
0
11
-185
21
-100
31
0
0
LINE
5
111
100
AcDbEntity
8
0
100
AcDbLine
10
-91.824999999999989
20
150.00000000000003
30
0
11
-258.17500000000001
21
150.00000000000003
31
0
0
LINE
5
112
100
AcDbEntity
8
0
100
AcDbLine
10
-258.17500000000001
20
150.00000000000003
30
0
11
-258.17500000000001
21
-100.00000000000001
31
0
0
LINE
5
113
100
AcDbEntity
8
0
100
AcDbLine
10
-258.17500000000001
20
-100.00000000000001
30
0
11
-185
21
-100
31
0
0
LINE
5
114
100
AcDbEntity
8
0
100
AcDbLine
10
-165
20
-100
30
0
11
-91.824999999999989
21
-100.00000000000001
31
0
0
LINE
5
115
100
AcDbEntity
8
0
100
AcDbLine
10
-80
20
150
30
0
11
80
21
150
31
0
0
LINE
5
116
100
AcDbEntity
8
0
100
AcDbLine
10
-80
20
-100
30
0
11
-20
21
-100
31
0
0
LINE
5
117
100
AcDbEntity
8
0
100
AcDbLine
10
-20
20
-100
30
0
11
-20
21
150
31
0
0
LINE
5
118
100
AcDbEntity
8
0
100
AcDbLine
10
-91.824999999999989
20
-100.00000000000001
30
0
11
-155
21
-100.00000000000001
31
0
0
LINE
5
119
100
AcDbEntity
8
0
100
AcDbLine
10
-155
20
-100.00000000000001
30
0
11
-155
21
150.00000000000003
31
0
0
LINE
5
120
100
AcDbEntity
8
0
100
AcDbLine
10
-20
20
-100
30
0
11
-20
21
20
31
0
0
LINE
5
121
100
AcDbEntity
8
0
100
AcDbLine
10
-20
20
-100
30
0
11
-20
21
40
31
0
0
LINE
5
122
100
AcDbEntity
8
0
100
AcDbLine
10
-155
20
-100.00000000000001
30
0
11
-154.99999999999997
21
39.999999999999986
31
0
0
LINE
5
123
100
AcDbEntity
8
0
100
AcDbLine
10
-20
20
40
30
0
11
-80
21
40
31
0
0
LINE
5
124
100
AcDbEntity
8
0
100
AcDbLine
10
-80
20
110
30
0
11
-20
21
110
31
0
0
LINE
5
125
100
AcDbEntity
8
0
100
AcDbLine
10
-20
20
110
30
0
11
-20
21
40
31
0
0
LINE
5
126
100
AcDbEntity
8
0
100
AcDbLine
10
-154.99999999999997
20
39.999999999999986
30
0
11
-91.824999999999989
21
39.999999999999986
31
0
0
LINE
5
127
100
AcDbEntity
8
0
100
AcDbLine
10
-91.824999999999989
20
109.99999999999999
30
0
11
-154.99999999999997
21
109.99999999999999
31
0
0
LINE
5
128
100
AcDbEntity
8
0
100
AcDbLine
10
-154.99999999999997
20
109.99999999999999
30
0
11
-154.99999999999997
21
39.999999999999986
31
0
0
LINE
5
129
100
AcDbEntity
8
0
100
AcDbLine
10
-91.824999999999989
20
150.00000000000003
30
0
11
-91.824999999999989
21
109.99999999999999
31
0
0
LINE
5
130
100
AcDbEntity
8
0
100
AcDbLine
10
-91.824999999999989
20
39.999999999999986
30
0
11
-91.824999999999989
21
-100.00000000000001
31
0
0
LINE
5
131
100
AcDbEntity
8
0
100
AcDbLine
10
-80
20
150
30
0
11
-80
21
110
31
0
0
LINE
5
132
100
AcDbEntity
8
0
100
AcDbLine
10
-80
20
40
30
0
11
-80
21
-100
31
0
0
ENDSEC
0
SECTION
2
OBJECTS
0
DICTIONARY
5
C
100
AcDbDictionary
3
ACAD_GROUP
350
D
3
ACAD_MLINESTYLE
350
17
0
DICTIONARY
5
D
100
AcDbDictionary
0
DICTIONARY
5
1A
330
C
100
AcDbDictionary
0
DICTIONARY
5
17
100
AcDbDictionary
0
ENDSEC
0
EOF
