0
SECTION
2
HEADER
9
$INSUNITS
70
4
9
$ACADVER
1
AC1014
9
$HANDSEED
5
FFFF
0
ENDSEC
0
SECTION
2
TABLES
0
TABLE
2
VPORT
5
8
100
AcDbSymbolTable
0
ENDTAB
0
TABLE
2
LTYPE
5
5
100
AcDbSymbolTable
0
LTYPE
5
14
100
AcDbSymbolTableRecord
100
AcDbLinetypeTableRecord
2
BYBLOCK
70
0
0
LTYPE
5
15
100
AcDbSymbolTableRecord
100
AcDbLinetypeTableRecord
2
BYLAYER
70
0
0
ENDTAB
0
TABLE
2
LAYER
5
2
100
AcDbSymbolTable
70
2
0
LAYER
5
50
100
AcDbSymbolTableRecord
100
AcDbLayerTableRecord
2
0
70
0
6
CONTINUOUS
0
ENDTAB
0
TABLE
2
STYLE
5
3
100
AcDbSymbolTable
70
1
0
STYLE
5
11
100
AcDbSymbolTableRecord
100
AcDbTextStyleTableRecord
2
STANDARD
70
0
0
ENDTAB
0
TABLE
2
VIEW
5
6
100
AcDbSymbolTable
70
0
0
ENDTAB
0
TABLE
2
UCS
5
7
100
AcDbSymbolTable
70
0
0
ENDTAB
0
TABLE
2
APPID
5
9
100
AcDbSymbolTable
70
2
0
APPID
5
12
100
AcDbSymbolTableRecord
100
AcDbRegAppTableRecord
2
ACAD
70
0
0
ENDTAB
0
TABLE
2
DIMSTYLE
5
A
100
AcDbSymbolTable
70
1
0
ENDTAB
0
TABLE
2
BLOCK_RECORD
5
1
100
AcDbSymbolTable
70
1
0
BLOCK_RECORD
5
1F
100
AcDbSymbolTableRecord
100
AcDbBlockTableRecord
2
*MODEL_SPACE
0
BLOCK_RECORD
5
1B
100
AcDbSymbolTableRecord
100
AcDbBlockTableRecord
2
*PAPER_SPACE
0
ENDTAB
0
ENDSEC
0
SECTION
2
BLOCKS
0
BLOCK
5
20
100
AcDbEntity
100
AcDbBlockBegin
2
*MODEL_SPACE
0
ENDBLK
5
21
100
AcDbEntity
100
AcDbBlockEnd
0
BLOCK
5
1C
100
AcDbEntity
100
AcDbBlockBegin
2
*PAPER_SPACE
0
ENDBLK
5
1D
100
AcDbEntity
100
AcDbBlockEnd
0
ENDSEC
0
SECTION
2
ENTITIES
0
LWPOLYLINE
5
100
100
AcDbEntity
8
0
100
AcDbPolyline
90
8
70
1
43
0.0
10
-96.924999999999983
20
161.82500000000002
10
155.57500000000002
20
161.82500000000002
42
-0.41421356237309503
10
161.82500000000002
20
155.57500000000002
10
161.82500000000002
20
-96.924999999999983
42
-0.41421356237309503
10
155.57500000000002
20
-103.17499999999998
10
-96.924999999999983
20
-103.17499999999998
42
-0.41421356237309503
10
-103.17499999999998
20
-96.924999999999983
10
-103.17499999999998
20
155.57500000000002
42
-0.41421356237309503
0
LWPOLYLINE
5
101
100
AcDbEntity
8
0
100
AcDbPolyline
90
8
70
1
43
0.0
10
-80.02604620229647
20
62.437304750530075
42
-0.19836791440902338
10
-62.5
20
80
10
-37.500000000000007
20
80
42
-0.19782518726431922
10
-20.000000000000018
20
62.500000000000014
10
-20.000000000000021
20
37.499999999999979
42
-0.19836791440902315
10
-37.562695249469932
20
19.973953797703537
10
-62.437304750530089
20
19.973953797703537
42
-0.19836791440902315
10
-80
20
37.499999999999979
0
LINE
5
102
100
AcDbEntity
8
0
100
AcDbLine
10
-62.5
20
80
30
0
11
-37.500000000000014
21
80
31
0
0
LWPOLYLINE
5
103
100
AcDbEntity
8
0
100
AcDbPolyline
90
4
70
1
43
0.0
10
-80
20
-10
10
-80
20
10
10
-83.174999999999983
20
10
10
-83.174999999999983
20
-10
0
LWPOLYLINE
5
104
100
AcDbEntity
8
0
100
AcDbPolyline
90
4
70
1
43
0.0
10
10.000000000000018
20
80.000000000000014
10
-9.9999999999999911
20
80
10
-9.9999999999999911
20
83.175000000000011
10
9.999999999990596
20
83.174999999971803
0
LWPOLYLINE
5
105
100
AcDbEntity
8
0
100
AcDbPolyline
90
4
70
1
43
0.0
10
80
20
9.9999999999999734
10
83.174999999999983
20
9.9999999999999734
10
83.174999999999983
20
-10.000000000000027
10
80
20
-10.000000000000027
0
LWPOLYLINE
5
106
100
AcDbEntity
8
0
100
AcDbPolyline
90
4
70
1
43
0.0
10
10.000000000000018
20
-80
10
10.000000000000018
20
-83.174999999999969
10
-10
20
-83.174999999999969
10
-10
20
-80
0
LWPOLYLINE
5
107
100
AcDbEntity
8
0
100
AcDbPolyline
90
8
70
1
43
0.0
10
80.000000000000028
20
-62.500000000000036
10
80
20
-37.500000000000036
42
0.19782518726431944
10
62.500000000000014
20
-20.000000000000018
10
37.5
20
-20.000000000000036
42
0.19836791440902307
10
19.97395379770353
20
-37.562695249469932
10
19.973953797703526
20
-62.437304750530096
42
0.19836791440902335
10
37.5
20
-80.000000000000014
10
62.437304750530096
20
-80.026046202296484
42
0.19836791440902354
0
LINE
5
108
100
AcDbEntity
8
0
100
AcDbLine
10
80.000000000000028
20
-62.500000000000036
30
0
11
80
21
-37.500000000000036
31
0
0
LWPOLYLINE
5
109
100
AcDbEntity
8
0
100
AcDbPolyline
90
8
70
1
43
0.0
10
128.84999999999997
20
80
42
-0.19782518726431933
10
146.34999999999999
20
62.500000000000014
10
146.34999999999997
20
37.499999999999993
42
-0.19836791440902338
10
128.78730475053007
20
19.973953797703537
10
103.91269524946992
20
19.973953797703533
42
-0.19836791440902315
10
86.350000000000023
20
37.499999999999979
10
86.323953797703552
20
62.437304750530075
42
-0.19836791440902338
10
103.85000000000002
20
80
0
LINE
5
110
100
AcDbEntity
8
0
100
AcDbLine
10
128.84999999999999
20
80
30
0
11
103.85000000000002
21
80
31
0
0
LWPOLYLINE
5
111
100
AcDbEntity
8
0
100
AcDbPolyline
90
8
70
1
43
0.0
10
19.973953797703558
20
128.78730475053007
42
-0.19836791440902315
10
37.5
20
146.34999999999997
10
62.5
20
146.34999999999994
42
-0.19782518726431947
10
80
20
128.84999999999997
10
80.000000000000014
20
103.84999999999999
42
-0.19836791440902352
10
62.437304750530096
20
86.323953797703524
10
37.499999999999993
20
86.349999999999966
42
-0.19836791440902338
10
19.97395379770353
20
103.91269524946992
0
LINE
5
112
100
AcDbEntity
8
0
100
AcDbLine
10
80
20
128.84999999999997
30
0
11
80.000000000000028
21
103.84999999999998
31
0
0
LWPOLYLINE
5
113
100
AcDbEntity
8
0
100
AcDbPolyline
90
8
70
1
43
0.0
10
146.34999999999999
20
128.84999999999997
10
146.35000000000002
20
103.84999999999999
42
-0.19836791440902352
10
128.7873047505301
20
86.323953797703524
10
103.84999999999998
20
86.349999999999966
42
-0.19836791440902338
10
86.323953797703524
20
103.91269524946992
10
86.323953797703552
20
128.78730475053007
42
-0.19836791440902315
10
103.84999999999999
20
146.34999999999997
10
128.84999999999999
20
146.34999999999994
42
-0.19782518726431947
0
LINE
5
114
100
AcDbEntity
8
0
100
AcDbLine
10
146.34999999999999
20
128.84999999999997
30
0
11
146.35000000000002
21
103.84999999999998
31
0
0
LWPOLYLINE
5
115
100
AcDbEntity
8
0
100
AcDbPolyline
90
4
70
1
43
0.0
10
93.175000000000026
20
146.35000000000002
10
73.175000000000011
20
146.34999999999999
10
73.175000000000011
20
149.52500000000001
10
93.174999999990604
20
149.52499999997178
0
LWPOLYLINE
5
116
100
AcDbEntity
8
0
100
AcDbPolyline
90
4
70
1
43
0.0
10
146.34999999999999
20
93.174999999999983
10
146.34999999999999
20
73.174999999999997
10
149.52499999999998
20
73.174999999999997
10
149.52499999999998
20
93.174999999999983
0
ENDSEC
0
SECTION
2
OBJECTS
0
DICTIONARY
5
C
100
AcDbDictionary
3
ACAD_GROUP
350
D
3
ACAD_MLINESTYLE
350
17
0
DICTIONARY
5
D
100
AcDbDictionary
0
DICTIONARY
5
1A
330
C
100
AcDbDictionary
0
DICTIONARY
5
17
100
AcDbDictionary
0
ENDSEC
0
EOF
